<?xml version="1.0" ?><svg viewBox="0 0 64 64" xmlns="http://www.w3.org/2000/svg"><g data-name="09-WhatsApp" id="_09-WhatsApp"><rect height="62" rx="6" style="fill:#48c658" width="62" x="1" y="1"/><path d="M57,1H7A6,6,0,0,0,1,7V17A22,22,0,0,0,23,39H41A22,22,0,0,0,63,17V7A6,6,0,0,0,57,1Z" style="fill:#62d96e"/><path d="M57,1H7A6,6,0,0,0,1,7v4A6,6,0,0,1,7,5H57a6,6,0,0,1,6,6V7A6,6,0,0,0,57,1Z" style="fill:#73ff81"/><path d="M57,59H7a6,6,0,0,1-6-6v4a6,6,0,0,0,6,6H57a6,6,0,0,0,6-6V53A6,6,0,0,1,57,59Z" style="fill:#219938"/><path d="M32,9A23,23,0,0,0,12.211,43.719L9,48h6.485A23,23,0,1,0,32,9Z" style="fill:#fff"/><circle cx="32" cy="32" r="18" style="fill:#48c658"/><path d="M26.683,27.3l1.366-1.366a1.289,1.289,0,0,0,0-1.822l-2.732-2.733a1.289,1.289,0,0,0-1.822,0L21.673,23.2c-2.012,2.012.639,7.925,5.921,13.207s11.2,7.933,13.207,5.921l1.822-1.822a1.289,1.289,0,0,0,0-1.822L39.89,35.951a1.289,1.289,0,0,0-1.822,0L36.7,37.317s-2.732,0-6.376-3.643S26.683,27.3,26.683,27.3Z" style="fill:#fff"/><path d="M32,55a22.929,22.929,0,0,1-16.515-7H11.25L9,51h6.485A22.995,22.995,0,0,0,55,35c0-.505-.022-1-.054-1.5A23,23,0,0,1,32,55Z" style="fill:#219938"/><path d="M9.052,33.525C9.021,34.013,9,34.5,9,35a22.868,22.868,0,0,0,2.28,9.961l.931-1.242A22.849,22.849,0,0,1,9.052,33.525Z" style="fill:#219938"/><path d="M27.063,28.917l.986-.985a1.289,1.289,0,0,0,0-1.822l-.089-.089L26.683,27.3A5.328,5.328,0,0,0,27.063,28.917Z" style="fill:#219938"/><path d="M42.534,40.594,40.8,42.327c-2.012,2.012-7.925-.639-13.207-5.921-3.582-3.581-5.948-7.45-6.476-10.2-.7,2.576,1.9,7.623,6.476,12.2,5.282,5.282,11.2,7.933,13.207,5.921l1.822-1.822a1.289,1.289,0,0,0,0-1.822Z" style="fill:#219938"/></g></svg>