<?xml version="1.0" ?><svg viewBox="0 0 64 64" xmlns="http://www.w3.org/2000/svg"><g data-name="14-messenger" id="_14-messenger"><rect height="62" rx="6" style="fill:#0295ff" width="62" x="1" y="1"/><path d="M57,1H7A6,6,0,0,0,1,7V17A22,22,0,0,0,23,39H41A22,22,0,0,0,63,17V7A6,6,0,0,0,57,1Z" style="fill:#01b5ff"/><path d="M57,1H7A6,6,0,0,0,1,7v4A6,6,0,0,1,7,5H57a6,6,0,0,1,6,6V7A6,6,0,0,0,57,1Z" style="fill:#87dcff"/><path d="M57,59H7a6,6,0,0,1-6-6v4a6,6,0,0,0,6,6H57a6,6,0,0,0,6-6V53A6,6,0,0,1,57,59Z" style="fill:#0068ff"/><path d="M32,10A21.994,21.994,0,0,0,16,47.091V58l9.79-4.9A22,22,0,1,0,32,10Z" style="fill:#fdfef9"/><polygon points="17.5 38.5 29.5 25.5 35.5 31.5 46.5 25.5 34.5 38.5 28.5 32.5 17.5 38.5" style="fill:#00aefd"/><path d="M10.067,33.368C10.027,33.908,10,34.451,10,35a21.919,21.919,0,0,0,6,15.091v-3A21.908,21.908,0,0,1,10.067,33.368Z" style="fill:#0068ff"/><path d="M32,54a21.988,21.988,0,0,1-6.21-.9L16,58v3l9.79-4.9A22,22,0,0,0,54,35c0-.505-.023-1-.057-1.5A22,22,0,0,1,32,54Z" style="fill:#0068ff"/><polygon points="34.5 38.5 28.5 32.5 21.218 36.472 17.5 40.5 28.5 34.5 34.5 40.5 46.5 27.5 42.782 29.528 34.5 38.5" style="fill:#e6e6e6"/></g></svg>