<?xml version="1.0" ?><svg viewBox="0 0 64 64" xmlns="http://www.w3.org/2000/svg"><g data-name="15-google play" id="_15-google_play"><rect height="62" rx="6" style="fill:#e5e6e8" width="62" x="1" y="1"/><path d="M57,1H7A6,6,0,0,0,1,7V17A22,22,0,0,0,23,39H41A22,22,0,0,0,63,17V7A6,6,0,0,0,57,1Z" style="fill:#f2f2f2"/><path d="M57,1H7A6,6,0,0,0,1,7v4A6,6,0,0,1,7,5H57a6,6,0,0,1,6,6V7A6,6,0,0,0,57,1Z" style="fill:#fafafa"/><path d="M57,59H7a6,6,0,0,1-6-6v4a6,6,0,0,0,6,6H57a6,6,0,0,0,6-6V53A6,6,0,0,1,57,59Z" style="fill:#b8b8ba"/><path d="M49.28,28.99a3.494,3.494,0,0,1,0,6.02l-7.15,4.21L42,39l-7-7,7-7,.13-.22Z" style="fill:#ffdf64"/><path d="M14,53,35,32l7,7,.13.22L17.74,53.57a3.225,3.225,0,0,1-1.6.43,3.138,3.138,0,0,1-2.22-.92Z" style="fill:#d74838"/><path d="M16.14,10a3.225,3.225,0,0,1,1.6.43L42.13,24.78,42,25l-7,7L14,11l-.08-.08A3.138,3.138,0,0,1,16.14,10Z" style="fill:#62d96e"/><path d="M14,11,35,32,14,53l-.08.08A3.138,3.138,0,0,1,13,50.86V13.14a3.138,3.138,0,0,1,.92-2.22Z" style="fill:#01b5ff"/><path d="M49.28,35.01l-7.15,4.21L17.74,53.57a3.225,3.225,0,0,1-1.6.43A3.141,3.141,0,0,1,13,50.86v3A3.141,3.141,0,0,0,16.14,57a3.225,3.225,0,0,0,1.6-.43L42.13,42.22l7.15-4.21a3.474,3.474,0,0,0,1.374-4.51A3.473,3.473,0,0,1,49.28,35.01Z" style="fill:#b8b8ba"/></g></svg>