<?xml version="1.0" ?><svg viewBox="0 0 64 64" xmlns="http://www.w3.org/2000/svg"><g data-name="10-LinkedIn" id="_10-LinkedIn"><rect height="62" rx="6" style="fill:#0281c7" width="62" x="1" y="1"/><path d="M57,1H7A6,6,0,0,0,1,7V17A22,22,0,0,0,23,39H41A22,22,0,0,0,63,17V7A6,6,0,0,0,57,1Z" style="fill:#0291e0"/><path d="M57,1H7A6,6,0,0,0,1,7v4A6,6,0,0,1,7,5H57a6,6,0,0,1,6,6V7A6,6,0,0,0,57,1Z" style="fill:#0aa8ff"/><path d="M57,59H7a6,6,0,0,1-6-6v4a6,6,0,0,0,6,6H57a6,6,0,0,0,6-6V53A6,6,0,0,1,57,59Z" style="fill:#005a8c"/><path d="M54,34V50H46V33c0-2.21-2-4-6-4s-6,1.79-6,4V50H26V22h8v.95A18.069,18.069,0,0,1,40,22a15.159,15.159,0,0,1,10,3.51A11.186,11.186,0,0,1,54,34Z" style="fill:#fff"/><rect height="28" style="fill:#fff" width="8" x="10" y="22"/><circle cx="14" cy="14" r="4" style="fill:#fff"/><path d="M40,29c-4,0-6,1.79-6,4v3c0-2.21,2-4,6-4s6,1.79,6,4V33C46,30.79,44,29,40,29Z" style="fill:#005a8c"/><rect height="3" style="fill:#005a8c" width="8" x="46" y="50"/><rect height="3" style="fill:#005a8c" width="8" x="26" y="50"/><rect height="3" style="fill:#005a8c" width="8" x="10" y="50"/><path d="M14,18a4,4,0,0,1-3.7-2.5,4,4,0,1,0,7.406,0A4,4,0,0,1,14,18Z" style="fill:#005a8c"/></g></svg>