<?xml version="1.0" ?><svg viewBox="0 0 64 64" xmlns="http://www.w3.org/2000/svg"><g data-name="08-youtube" id="_08-youtube"><rect height="62" rx="6" style="fill:#c43b2b" width="62" x="1" y="1"/><path d="M57,1H7A6,6,0,0,0,1,7V17A22,22,0,0,0,23,39H41A22,22,0,0,0,63,17V7A6,6,0,0,0,57,1Z" style="fill:#d74838"/><path d="M57,1H7A6,6,0,0,0,1,7v4A6,6,0,0,1,7,5H57a6,6,0,0,1,6,6V7A6,6,0,0,0,57,1Z" style="fill:#f2513f"/><path d="M57,59H7a6,6,0,0,1-6-6v4a6,6,0,0,0,6,6H57a6,6,0,0,0,6-6V53A6,6,0,0,1,57,59Z" style="fill:#9e291b"/><path d="M47,15H17a8,8,0,0,0-8,8V41a8,8,0,0,0,8,8H47a8,8,0,0,0,8-8V23A8,8,0,0,0,47,15ZM24,44V20L44,32Z" style="fill:#fdfef9"/><polygon points="24 44 44 32 24 20 24 44" style="fill:#c43b2b"/><path d="M47,49H17a8,8,0,0,1-8-8v3a8,8,0,0,0,8,8H47a8,8,0,0,0,8-8V41A8,8,0,0,1,47,49Z" style="fill:#9e291b"/><polygon points="24 44 24 47 44 35 41.5 33.5 24 44" style="fill:#ececec"/></g></svg>